<svg width="400" height="100" viewBox="0 0 400 100" fill="none" xmlns="http://www.w3.org/2000/svg">
  <!-- Stylized 'g' Icon -->
  <g transform="translate(0, 10) scale(0.65)">
    <!-- Ring (donut) -->
    <path d="M41.0323 98.9072C19.0674 98.9072 1.19727 80.9608 1.19727 58.9022C1.19727 36.8429 19.0674 18.8965 41.0323 18.8965C62.9978 18.8965 80.868 36.8429 80.868 58.9022C80.8681 80.9606 62.9978 98.9072 41.0323 98.9072ZM41.0323 40.8023C31.0945 40.8023 23.0101 48.9219 23.0101 58.9022C23.0101 68.8824 31.0947 77.0015 41.0323 77.0015C50.9702 77.0015 59.0553 68.8824 59.0553 58.9022C59.0553 48.9219 50.9702 40.8023 41.0323 40.8023Z" fill="#7F1D1D"/>
    <!-- Smile/curve -->
    <path d="M40.3594 133.752C24.7607 133.752 10.0502 126.871 0 114.875L16.6909 100.772C22.5868 107.81 31.2133 111.846 40.3594 111.846C50.3132 111.846 59.7201 106.983 65.5225 98.8379L83.2632 111.584C73.3746 125.465 57.3356 133.752 40.3594 133.752Z" fill="#7F1D1D"/>
    <!-- Dot -->
    <path d="M71.4354 23.6158C77.9291 23.6158 83.1932 18.3292 83.1932 11.8079C83.1932 5.28658 77.9291 0 71.4354 0C64.9418 0 59.6777 5.28658 59.6777 11.8079C59.6777 18.3292 64.9418 23.6158 71.4354 23.6158Z" fill="#F2A9A9"/>
  </g>
  
  <!-- "Globaly" text -->
  <text x="70" y="68" font-family="Inter, sans-serif" font-weight="700" font-size="44" fill="#1E293B">Globaly</text>
</svg>
